<svg width="974" height="165" viewBox="0 0 974 165" fill="none" xmlns="http://www.w3.org/2000/svg">
<path d="M667.18 140.274C672.658 140.403 677.492 138.824 681.682 135.537C685.936 132.186 688.643 127.835 689.803 122.485L711.459 122.389C710.75 129.285 708.236 135.569 703.918 141.241C699.664 146.913 694.186 151.328 687.482 154.486C680.779 157.645 673.786 159.127 666.503 158.934C657.544 158.805 649.906 156.484 643.59 151.973C637.273 147.461 632.665 141.241 629.765 133.313C626.864 125.321 625.897 116.427 626.864 106.63L627.154 103.246C628.25 93.127 631.183 83.9746 635.952 75.7891C640.786 67.5391 647.006 61.1904 654.611 56.7432C662.217 52.2959 670.66 50.2012 679.941 50.459C691.285 50.7168 700.341 54.4873 707.108 61.7705C713.876 68.9893 717.26 78.3994 717.26 90.001H695.797C695.797 84.0068 694.314 79.1084 691.35 75.3057C688.449 71.5029 684.228 69.4727 678.685 69.2148C669.726 68.957 662.668 72.7598 657.512 80.623C652.355 88.4863 649.584 99.5723 649.197 113.881C648.746 131.219 654.74 140.017 667.18 140.274ZM785.226 157C784.452 154.422 784.13 151.167 784.259 147.235C775.622 155.292 766.309 159.191 756.318 158.934C747.23 158.805 739.689 155.904 733.695 150.232C727.766 144.496 724.994 137.245 725.381 128.479C725.896 117.458 730.666 108.789 739.689 102.473C748.713 96.1562 760.83 92.998 776.041 92.998L790.93 93.1914L792.283 86.0371C792.67 83.5234 792.67 81.1709 792.283 78.9795C790.994 72.0186 786.386 68.4414 778.458 68.248C773.56 68.1191 769.241 69.376 765.503 72.0186C761.829 74.5967 759.573 78.0771 758.735 82.46L735.822 82.6533C736.273 76.208 738.562 70.5684 742.687 65.7344C746.812 60.8359 752.29 57.0332 759.122 54.3262C765.954 51.6191 773.173 50.3301 780.778 50.459C792.187 50.7168 801.081 54.165 807.462 60.8037C813.843 67.3779 816.485 75.918 815.39 86.4238L807.365 135.44L806.592 144.142C806.398 147.944 806.882 151.65 808.042 155.26L807.945 157H785.226ZM761.636 140.178C766.47 140.307 770.949 139.211 775.074 136.891C779.199 134.506 782.712 131.444 785.612 127.706L789.189 107.887L778.265 107.79C769.628 107.79 762.731 109.434 757.575 112.721C752.419 115.943 749.486 120.391 748.777 126.062C748.262 130.381 749.196 133.797 751.581 136.311C754.03 138.76 757.382 140.049 761.636 140.178ZM852.418 157H829.505L855.318 8.5H878.231L852.418 157ZM923.768 140.274C929.246 140.403 934.08 138.824 938.27 135.537C942.523 132.186 945.23 127.835 946.391 122.485L968.047 122.389C967.338 129.285 964.824 135.569 960.506 141.241C956.252 146.913 950.773 151.328 944.07 154.486C937.367 157.645 930.374 159.127 923.091 158.934C914.132 158.805 906.494 156.484 900.178 151.973C893.861 147.461 889.253 141.241 886.353 133.313C883.452 125.321 882.485 116.427 883.452 106.63L883.742 103.246C884.838 93.127 887.771 83.9746 892.54 75.7891C897.374 67.5391 903.594 61.1904 911.199 56.7432C918.805 52.2959 927.248 50.2012 936.529 50.459C947.873 50.7168 956.929 54.4873 963.696 61.7705C970.464 68.9893 973.848 78.3994 973.848 90.001H952.385C952.385 84.0068 950.902 79.1084 947.938 75.3057C945.037 71.5029 940.815 69.4727 935.272 69.2148C926.313 68.957 919.256 72.7598 914.1 80.623C908.943 88.4863 906.172 99.5723 905.785 113.881C905.334 131.219 911.328 140.017 923.768 140.274Z" fill="white"/>
<path d="M94.823 50C98.718 56.433 100.474 63.059 100.474 71.429C100.474 98.125 77.685 132.805 59.189 157.157H16.943L0 55.845L36.991 52.333L45.949 124.423C54.319 110.787 64.648 89.358 64.648 74.748C64.648 66.751 63.278 61.304 61.137 56.819L94.823 50Z" fill="white"/>
<path d="M142.765 94.612C149.572 94.612 166.709 91.498 166.709 81.758C166.709 77.081 163.402 74.748 159.505 74.748C152.687 74.748 143.74 82.924 142.765 94.612ZM141.985 113.902C141.985 125.795 148.598 130.461 157.365 130.461C166.912 130.461 176.053 128.128 187.934 122.09L183.459 152.478C175.088 156.568 162.042 159.297 149.379 159.297C117.258 159.297 105.762 139.817 105.762 115.464C105.762 83.9 124.462 50.385 163.015 50.385C184.241 50.385 196.11 62.277 196.11 78.836C196.112 105.531 161.85 113.709 141.985 113.902Z" fill="white"/>
<path d="M302.861 73.774C302.861 77.67 302.27 83.321 301.682 87.014L290.582 157.156H254.563L264.688 92.858C264.88 91.114 265.47 87.603 265.47 85.655C265.47 80.978 262.548 79.811 259.035 79.811C254.369 79.811 249.692 81.952 246.577 83.515L235.093 157.157H198.871L215.419 52.142H246.769L247.166 60.524C254.562 55.654 264.301 50.387 278.119 50.387C296.426 50.385 302.861 59.74 302.861 73.774Z" fill="white"/>
<path d="M409.791 61.881C420.107 54.485 429.848 50.385 443.279 50.385C461.774 50.385 468.207 59.74 468.207 73.774C468.207 77.67 467.618 83.321 467.03 87.014L455.943 157.156H419.914L430.232 91.499C430.422 89.744 430.821 87.603 430.821 86.245C430.821 80.979 427.898 79.811 424.386 79.811C419.912 79.811 415.44 81.759 412.12 83.515L400.638 157.157H364.618L374.936 91.5C375.126 89.745 375.513 87.604 375.513 86.246C375.513 80.98 372.589 79.812 369.089 79.812C364.413 79.812 359.746 81.953 356.631 83.516L345.138 157.158H308.928L325.474 52.143H356.441L357.414 60.91C364.618 55.656 374.349 50.389 387.394 50.389C398.689 50.385 406.084 55.256 409.791 61.881Z" fill="white"/>
<path d="M539.891 92.473C539.891 83.9 537.747 78.055 531.327 78.055C517.112 78.055 514.193 103.186 514.193 116.042C514.193 125.795 516.922 131.831 523.34 131.831C536.776 131.831 539.891 105.328 539.891 92.473ZM477.588 114.49C477.588 81.373 495.108 50.385 535.418 50.385C565.792 50.385 576.895 68.314 576.895 93.061C576.895 125.794 559.564 159.692 518.282 159.692C487.712 159.692 477.588 139.622 477.588 114.49Z" fill="white"/>
</svg>
