<svg width="128" height="128" viewBox="0 0 128 128" fill="none" xmlns="http://www.w3.org/2000/svg">
<path d="M112.868 0H15.1318C6.77472 0 0 6.77472 0 15.1318V112.868C0 121.225 6.77472 128 15.1318 128H112.868C121.225 128 128 121.225 128 112.868V15.1318C128 6.77472 121.225 0 112.868 0Z" fill="#3396CD"/>
<path d="M49.4015 36.4502L121.674 22.0775V42.1705L76.8427 51.3488C74.6019 69.4531 60.0089 91.4605 47.9851 107.287H18.1606L6.20154 35.7581L32.3249 33.2775L38.6778 84.1724C44.5817 74.5426 51.8822 59.4109 51.8822 49.1014C51.8822 43.453 50.9147 39.613 49.4015 36.4502Z" fill="white"/>
</svg>
