<svg xmlns="http://www.w3.org/2000/svg" width="516" height="516" fill="none" viewBox="0 0 516 516"><path fill="#3396CD" d="M455 0H61C27.3106 0 0 27.3106 0 61V455C0 488.689 27.3106 516 61 516H455C488.689 516 516 488.689 516 455V61C516 27.3106 488.689 0 455 0Z"/><path fill="#fff" d="M199.15 146.94L490.5 89V170L309.772 207C300.739 279.983 241.911 368.7 193.44 432.5H73.21L25 144.15L130.31 134.15L155.92 339.32C179.72 300.5 209.15 239.5 209.15 197.94C209.15 175.17 205.25 159.69 199.15 146.94Z"/></svg>