<svg width="577" height="110" viewBox="0 0 577 110" fill="none" xmlns="http://www.w3.org/2000/svg">
<path d="M94.823 0C98.718 6.433 100.474 13.059 100.474 21.429C100.474 48.125 77.685 82.805 59.189 107.157H16.943L0 5.845L36.991 2.33301L45.949 74.423C54.319 60.787 64.648 39.358 64.648 24.748C64.648 16.751 63.278 11.304 61.137 6.819L94.823 0Z" fill="white"/>
<path d="M142.765 44.612C149.572 44.612 166.709 41.498 166.709 31.758C166.709 27.081 163.402 24.748 159.505 24.748C152.687 24.748 143.74 32.924 142.765 44.612ZM141.985 63.902C141.985 75.795 148.598 80.461 157.365 80.461C166.912 80.461 176.053 78.128 187.934 72.09L183.459 102.478C175.088 106.568 162.042 109.297 149.379 109.297C117.258 109.297 105.762 89.817 105.762 65.464C105.762 33.9 124.462 0.38501 163.015 0.38501C184.241 0.38501 196.11 12.277 196.11 28.836C196.112 55.531 161.85 63.709 141.985 63.902Z" fill="white"/>
<path d="M302.861 23.774C302.861 27.67 302.27 33.321 301.682 37.014L290.582 107.156H254.563L264.688 42.858C264.88 41.114 265.47 37.603 265.47 35.655C265.47 30.978 262.548 29.811 259.035 29.811C254.369 29.811 249.692 31.952 246.577 33.515L235.093 107.157H198.871L215.419 2.14197H246.769L247.166 10.524C254.562 5.65397 264.301 0.386963 278.119 0.386963C296.426 0.384963 302.861 9.73997 302.861 23.774Z" fill="white"/>
<path d="M409.791 11.881C420.107 4.48501 429.848 0.38501 443.279 0.38501C461.774 0.38501 468.207 9.74002 468.207 23.774C468.207 27.67 467.618 33.321 467.03 37.014L455.943 107.156H419.914L430.232 41.499C430.422 39.744 430.821 37.603 430.821 36.245C430.821 30.979 427.898 29.811 424.386 29.811C419.912 29.811 415.44 31.759 412.12 33.515L400.638 107.157H364.618L374.936 41.5C375.126 39.745 375.513 37.604 375.513 36.246C375.513 30.98 372.589 29.812 369.089 29.812C364.413 29.812 359.746 31.953 356.631 33.516L345.138 107.158H308.928L325.474 2.14301H356.441L357.414 10.91C364.618 5.656 374.349 0.389008 387.394 0.389008C398.689 0.385008 406.084 5.25601 409.791 11.881Z" fill="white"/>
<path d="M539.891 42.473C539.891 33.9 537.747 28.055 531.327 28.055C517.112 28.055 514.193 53.186 514.193 66.042C514.193 75.795 516.922 81.831 523.34 81.831C536.776 81.831 539.891 55.328 539.891 42.473ZM477.588 64.49C477.588 31.373 495.108 0.38501 535.418 0.38501C565.792 0.38501 576.895 18.314 576.895 43.061C576.895 75.794 559.564 109.692 518.282 109.692C487.712 109.692 477.588 89.622 477.588 64.49Z" fill="white"/>
</svg>
